<mxfile host="app.diagrams.net" modified="2023-12-07T21:24:17.299Z" agent="Mozilla/5.0 (Windows NT 10.0; Win64; x64) AppleWebKit/537.36 (KHTML, like Gecko) Chrome/119.0.0.0 Safari/537.36" version="22.1.7" etag="ilAsycIcnLDRQlb0gYrF" type="github">
  <diagram name="PÃ¡gina-1" id="k_kV_HAxy4s_fXm18PeF">
    <mxGraphModel>
      <root>
        <mxCell id="0" />
        <mxCell id="1" parent="0" />
      </root>
    </mxGraphModel>
  </diagram>
</mxfile>
